<svg width="608" height="297" xmlns="http://www.w3.org/2000/svg" xmlns:xlink="http://www.w3.org/1999/xlink" overflow="hidden"><defs><clipPath id="clip0"><rect x="68" y="57" width="608" height="297"/></clipPath></defs><g clip-path="url(#clip0)" transform="translate(-68 -57)"><rect x="70.5001" y="58.5001" width="604" height="295" stroke="#D9D9D9" stroke-width="1.33333" stroke-miterlimit="8" fill="none"/><rect x="140.5" y="116.5" width="96" height="58" stroke="#000000" stroke-width="1.33333" stroke-miterlimit="8" fill="#FFFFFF"/><text font-family="Yu Gothic,Yu Gothic_MSFontService,sans-serif" font-weight="400" font-size="11" transform="translate(168.254 148)">Building</text><rect x="319.5" y="116.5" width="96" height="58" stroke="#000000" stroke-width="1.33333" stroke-miterlimit="8" fill="#FFFFFF"/><text font-family="Yu Gothic,Yu Gothic_MSFontService,sans-serif" font-weight="400" font-size="11" transform="translate(354.726 148)">Floor</text><rect x="498.5" y="116.5" width="96" height="58" stroke="#000000" stroke-width="1.33333" stroke-miterlimit="8" fill="#FFFFFF"/><text font-family="Yu Gothic,Yu Gothic_MSFontService,sans-serif" font-weight="400" font-size="11" transform="translate(532.199 148)">Room</text><path d="M0 0 83.0555 0.000104987" stroke="#000000" stroke-width="0.666667" stroke-miterlimit="8" fill="none" fill-rule="evenodd" transform="matrix(-1 0 0 1 319.556 145.5)"/><text font-family="Yu Gothic,Yu Gothic_MSFontService,sans-serif" font-weight="400" font-size="11" transform="translate(297.801 163)">1..*<tspan font-size="11" x="-28.2479" y="-26">R1</tspan><tspan font-size="11" x="-57.0075" y="0">1</tspan></text><path d="M0 0 83.0555 0.000104987" stroke="#000000" stroke-width="0.666667" stroke-miterlimit="8" fill="none" fill-rule="evenodd" transform="matrix(-1 0 0 1 498.556 145.5)"/><text font-family="Yu Gothic,Yu Gothic_MSFontService,sans-serif" font-weight="400" font-size="11" transform="translate(446.672 137)">R2<tspan font-size="11" x="33.0415" y="26">*</tspan><tspan font-size="11" x="-23.966" y="26">1</tspan></text><rect x="498.5" y="247.5" width="96" height="57" stroke="#000000" stroke-width="1.33333" stroke-miterlimit="8" fill="#FFFFFF"/><text font-family="Yu Gothic,Yu Gothic_MSFontService,sans-serif" font-weight="400" font-size="11" transform="translate(509.449 279)">Air Conditioner</text><path d="M546.5 174.5 546.5 247.497" stroke="#000000" stroke-width="0.666667" stroke-miterlimit="8" fill="none" fill-rule="evenodd"/><text font-family="Yu Gothic,Yu Gothic_MSFontService,sans-serif" font-weight="400" font-size="11" transform="translate(556.921 214)">R4<tspan font-size="11" x="-1.91089" y="-23">1</tspan><tspan font-size="11" x="-22.8356" y="30">*</tspan></text></g></svg>