<svg width="608" height="384" xmlns="http://www.w3.org/2000/svg" xmlns:xlink="http://www.w3.org/1999/xlink" overflow="hidden"><defs><clipPath id="clip0"><rect x="68" y="57" width="608" height="384"/></clipPath></defs><g clip-path="url(#clip0)" transform="translate(-68 -57)"><rect x="70.5001" y="58.5001" width="604" height="381" stroke="#D9D9D9" stroke-width="1.33333" stroke-miterlimit="8" fill="none"/><rect x="140.5" y="116.5" width="96" height="58" stroke="#000000" stroke-width="1.33333" stroke-miterlimit="8" fill="#FFFFFF"/><text font-family="Yu Gothic,Yu Gothic_MSFontService,sans-serif" font-weight="400" font-size="11" transform="translate(168.254 148)">Building</text><rect x="319.5" y="116.5" width="96" height="58" stroke="#000000" stroke-width="1.33333" stroke-miterlimit="8" fill="#FFFFFF"/><text font-family="Yu Gothic,Yu Gothic_MSFontService,sans-serif" font-weight="400" font-size="11" transform="translate(354.726 148)">Floor</text><rect x="498.5" y="116.5" width="96" height="58" stroke="#000000" stroke-width="1.33333" stroke-miterlimit="8" fill="#FFFFFF"/><text font-family="Yu Gothic,Yu Gothic_MSFontService,sans-serif" font-weight="400" font-size="11" transform="translate(532.199 148)">Room</text><path d="M0 0 83.0555 0.000104987" stroke="#000000" stroke-width="0.666667" stroke-miterlimit="8" fill="none" fill-rule="evenodd" transform="matrix(-1 0 0 1 319.556 145.5)"/><text font-family="Yu Gothic,Yu Gothic_MSFontService,sans-serif" font-weight="400" font-size="11" transform="translate(297.801 163)">1..*<tspan font-size="11" x="-28.2479" y="-26">R1</tspan><tspan font-size="11" x="-57.0075" y="0">1</tspan></text><path d="M0 0 83.0555 0.000104987" stroke="#000000" stroke-width="0.666667" stroke-miterlimit="8" fill="none" fill-rule="evenodd" transform="matrix(-1 0 0 1 498.556 145.5)"/><text font-family="Yu Gothic,Yu Gothic_MSFontService,sans-serif" font-weight="400" font-size="11" transform="translate(446.672 137)">R2<tspan font-size="11" x="33.0415" y="26">*</tspan><tspan font-size="11" x="-23.966" y="26">1</tspan></text><rect x="498.5" y="247.5" width="96" height="57" stroke="#000000" stroke-width="1.33333" stroke-miterlimit="8" fill="#FFFFFF"/><text font-family="Yu Gothic,Yu Gothic_MSFontService,sans-serif" font-weight="400" font-size="11" transform="translate(509.449 279)">Air Conditioner</text><path d="M546.5 174.5 546.5 247.497" stroke="#000000" stroke-width="0.666667" stroke-miterlimit="8" fill="none" fill-rule="evenodd"/><text font-family="Yu Gothic,Yu Gothic_MSFontService,sans-serif" font-weight="400" font-size="11" transform="translate(556.921 214)">R4<tspan font-size="11" x="-1.91089" y="-23">1</tspan><tspan font-size="11" x="-22.8356" y="30">*</tspan></text><rect x="321.5" y="247.5" width="96" height="57" stroke="#000000" stroke-width="1.33333" stroke-miterlimit="8" fill="#FFFFFF"/><text font-family="Yu Gothic,Yu Gothic_MSFontService,sans-serif" font-weight="400" font-size="11" transform="translate(335.18 273)">Measurement <tspan font-size="11" x="4.58667" y="13">Instruments</tspan></text><path d="M510.836 174.5 510.836 210.998 369.5 210.998 369.5 247.497" stroke="#000000" stroke-width="0.666667" stroke-miterlimit="8" fill="none" fill-rule="evenodd"/><text font-family="Yu Gothic,Yu Gothic_MSFontService,sans-serif" font-weight="400" font-size="11" transform="translate(496.316 188)">1<tspan font-size="11" x="-63.8658" y="18">R3</tspan><tspan font-size="11" x="-137.276" y="54">*</tspan></text><path d="M0 0 80.9356 0.000104987" stroke="#000000" stroke-width="0.666667" stroke-miterlimit="8" fill="none" fill-rule="evenodd" transform="matrix(-1 0 0 1 498.436 275.5)"/><text font-family="Yu Gothic,Yu Gothic_MSFontService,sans-serif" font-weight="400" font-size="11" transform="translate(451.517 269)">R6<tspan font-size="11" x="-23.5513" y="22">0..1</tspan><tspan font-size="11" x="30.7417" y="22">*</tspan></text><rect x="412.5" y="360.5" width="96" height="58" stroke="#000000" stroke-width="1.33333" stroke-miterlimit="8" fill="#FFFFFF"/><text font-family="Yu Gothic,Yu Gothic_MSFontService,sans-serif" font-weight="400" font-size="11" transform="translate(437.881 386)">Affection <tspan font-size="11" x="6.24664" y="13">Target</tspan></text><path d="M0 0 6.20714 83.4833" stroke="#000000" stroke-width="0.666667" stroke-miterlimit="8" stroke-dasharray="0.666667 0.666667" fill="none" fill-rule="evenodd" transform="matrix(1 0 0 -1 460.5 360.983)"/></g></svg>